<?xml version="1.0" encoding="utf-8"?>
<!-- Generator: Adobe Illustrator 24.1.0, SVG Export Plug-In . SVG Version: 6.00 Build 0)  -->
<svg version="1.1" id="Layer_1" xmlns="http://www.w3.org/2000/svg" xmlns:xlink="http://www.w3.org/1999/xlink" x="0px" y="0px"
	 viewBox="0 0 1200 1000" style="enable-background:new 0 0 1200 1000;" xml:space="preserve">
<style type="text/css">
	.st0{fill:#FFFFFF;}
</style>
<rect width="1200" height="1000"/>
<g>
	<path class="st0" d="M715.41,593.74c67.74,0,75.59-30.39,75.59-53.26c0-23.42-14.51-36.01-28.06-40l-9.75-2.87l9.53-3.52
		c7.27-2.69,24.22-11.74,24.22-37.48c0-16.21-6.49-28.82-19.29-37.45c-12.48-8.43-31.06-12.89-53.71-12.89h-52.09l-30.96,43.79
		h85.68c12.65,0,20.18,5.91,20.18,15.83c0,10.32-7.53,16.43-20.18,16.43H608.06l-24.59,34.79H715.7c18.15,0,21.93,8.92,21.93,16.4
		c0,11.31-7.37,17.03-21.93,17.03H551.83h-58.11H383.31c-1.11-4.74-2.05-9.56-2.85-14.42c-1.92-11.76-2.93-23.82-2.93-36.12
		c0-31.17,6.44-60.85,18.07-87.81c3-6.97,6.36-13.76,10.03-20.34C443.68,323.7,516.56,277.52,600,277.52
		c19.19,0,37.82,2.43,55.58,7.03l10.75-15.33c-21.08-6.07-43.33-9.32-66.33-9.32c-93.51,0-174.71,53.74-214.32,131.96h-4.18
		l2.43,3.51c-15.39,31.65-24.03,67.16-24.03,104.64c0,12.27,0.93,24.35,2.72,36.12c0.72,4.85,1.6,9.66,2.64,14.42
		c3.2,14.96,7.82,29.41,13.7,43.2h19.29H715.41z"/>
	<path class="st0" d="M613.39,236.69v-13.71h-26.78v13.71c4.44-0.22,8.91-0.34,13.39-0.34S608.95,236.46,613.39,236.69z"/>
	<path class="st0" d="M586.61,763.31v13.71h26.78v-13.71c-4.44,0.22-8.91,0.34-13.39,0.34S591.05,763.54,586.61,763.31z"/>
	<path class="st0" d="M877.03,513.38v-26.77H863.3c0.22,4.44,0.34,8.89,0.34,13.37c0,4.48-0.11,8.95-0.34,13.39H877.03z"/>
	<path class="st0" d="M893.56,452.98c-7.48-46.95-26.01-90.28-52.83-127.21l12.19-12.19l-66.49-66.51l-12.19,12.19
		c-36.94-26.8-80.25-45.33-127.21-52.83v-17.09h-94.06v17.09c-46.95,7.5-90.26,26.03-127.2,52.83l-12.19-12.19l-66.51,66.51
		l12.19,12.19c-26.81,36.94-45.35,80.27-52.83,127.21h-17.11v94.04h17.11c7.5,46.96,26.01,90.28,52.83,127.21l-12.19,12.19
		l66.51,66.51l12.19-12.19c36.94,26.81,80.25,45.33,127.2,52.83v17.09h94.06v-17.09c46.96-7.5,90.28-26.01,127.21-52.83l12.19,12.19
		l66.49-66.51l-12.19-12.19c26.81-36.94,45.33-80.25,52.83-127.21h17.11v-94.04H893.56z M894.65,531h-32.84
		c-0.62,5.4-1.43,10.73-2.39,16.02c-6.81,37.75-21.7,72.74-42.8,103.09c-3.09,4.44-6.29,8.78-9.64,13.01l23.29,23.31l-43.84,43.84
		l-23.29-23.29c-4.24,3.35-8.59,6.57-13.02,9.64c-30.35,21.11-65.34,36.01-103.09,42.82c-5.29,0.96-10.62,1.76-16.02,2.39v32.82
		h-62.02v-32.82c-5.4-0.62-10.73-1.43-16.02-2.39c-37.75-6.81-72.72-21.7-103.08-42.82c-4.45-3.08-8.79-6.3-13.02-9.64l-23.29,23.29
		l-43.86-43.84l23.31-23.31c-3.36-4.23-6.57-8.57-9.64-13.01c-9.16-13.15-17.14-27.2-23.8-41.95
		c-8.71-19.27-15.15-39.76-19.01-61.14c-0.38-2.1-0.74-4.21-1.06-6.33c-0.51-3.2-0.96-6.44-1.33-9.69h-32.84V469h32.84
		c0.62-5.4,1.43-10.73,2.39-16.02c6.81-37.75,21.7-72.74,42.82-103.09c3.08-4.44,6.28-8.78,9.64-13.01l-23.31-23.31l43.86-43.84
		l23.29,23.29c4.23-3.35,8.57-6.57,13.02-9.64c30.35-21.11,65.32-36.01,103.08-42.82c5.29-0.96,10.62-1.76,16.02-2.39v-32.82h62.02
		v32.82c5.4,0.62,10.73,1.43,16.02,2.39c18.6,3.36,36.55,8.67,53.58,15.75c10.16,4.2,19.97,9.02,29.44,14.42
		c0.74,0.42,1.46,0.83,2.18,1.25c4.16,2.43,8.27,4.97,12.29,7.61c1.89,1.25,3.75,2.51,5.61,3.8c4.44,3.08,8.78,6.3,13.02,9.64
		l23.29-23.29l43.84,43.84l-23.29,23.31c3.35,4.23,6.55,8.57,9.64,13.01c21.1,30.35,35.99,65.34,42.8,103.09
		c0.96,5.29,1.76,10.62,2.39,16.02h32.84V531z"/>
	<path class="st0" d="M322.97,486.62v26.77h13.73c-0.22-4.44-0.34-8.91-0.34-13.39c0-4.49,0.11-8.94,0.34-13.37H322.97z"/>
	<path class="st0" d="M795.56,323.38l9.79-9.8l-18.92-18.93l-9.8,9.8C783.26,310.42,789.59,316.75,795.56,323.38z"/>
	<path class="st0" d="M404.45,676.62l-9.8,9.8l18.93,18.93l9.8-9.8C416.75,689.58,410.43,683.27,404.45,676.62z"/>
	<path class="st0" d="M776.63,695.56l9.8,9.8l18.92-18.93l-9.79-9.8C789.57,683.25,783.26,689.58,776.63,695.56z"/>
	<path class="st0" d="M423.37,304.43l-9.79-9.79l-18.93,18.93l9.79,9.79C410.43,316.75,416.75,310.42,423.37,304.43z"/>
	<path class="st0" d="M730.98,298.85c-4.02-2.63-8.14-5.14-12.32-7.53c-12.05-6.89-24.73-12.75-37.96-17.48l-10.52,15.01
		l-119.8,170.72l-26.85,38.35l-62.12-91.65h-52.39l86.46,124.86c0.24,0.37,0.51,0.74,0.78,1.09c0.99,1.36,2.05,2.67,3.19,3.91
		c5.62,6.15,13.05,10.48,23.26,10.48c10.4,0,17.86-4.6,23.47-10.48c1.2-1.25,2.31-2.56,3.35-3.91c0.29-0.37,0.56-0.72,0.85-1.09
		l158.11-225.32c4.2,2.35,8.33,4.85,12.37,7.48c61.12,39.69,101.63,108.57,101.63,186.72c0,122.68-99.81,222.49-222.49,222.49
		c-83.44,0-156.32-46.18-194.38-114.34h-19.94C425.29,686.38,506.49,740.12,600,740.12c132.4,0,240.11-107.72,240.11-240.11
		C840.11,415.9,796.64,341.75,730.98,298.85z"/>
</g>
</svg>
